<mxfile host="app.diagrams.net" agent="Mozilla/5.0 (X11; Linux x86_64; rv:134.0) Gecko/20100101 Firefox/134.0" version="26.0.7">
  <diagram name="Page-1" id="MUyP5_q_mO_h7tWtrMWb">
    <mxGraphModel dx="1412" dy="762" grid="1" gridSize="10" guides="1" tooltips="1" connect="1" arrows="1" fold="1" page="1" pageScale="1" pageWidth="850" pageHeight="1100" math="0" shadow="0">
      <root>
        <mxCell id="0" />
        <mxCell id="1" parent="0" />
        <mxCell id="WSbjGgRug-91Eox6C42--1" value="" style="rounded=1;whiteSpace=wrap;html=1;" vertex="1" parent="1">
          <mxGeometry x="120" y="80" width="620" height="420" as="geometry" />
        </mxCell>
        <mxCell id="WSbjGgRug-91Eox6C42--2" value="Server" style="text;html=1;align=center;verticalAlign=middle;whiteSpace=wrap;rounded=0;" vertex="1" parent="1">
          <mxGeometry x="160" y="90" width="60" height="30" as="geometry" />
        </mxCell>
        <mxCell id="WSbjGgRug-91Eox6C42--20" style="edgeStyle=orthogonalEdgeStyle;rounded=0;orthogonalLoop=1;jettySize=auto;html=1;entryX=1;entryY=0.5;entryDx=0;entryDy=0;" edge="1" parent="1" source="WSbjGgRug-91Eox6C42--4" target="WSbjGgRug-91Eox6C42--9">
          <mxGeometry relative="1" as="geometry" />
        </mxCell>
        <mxCell id="WSbjGgRug-91Eox6C42--4" value="" style="rounded=0;whiteSpace=wrap;html=1;" vertex="1" parent="1">
          <mxGeometry x="490" y="160" width="120" height="60" as="geometry" />
        </mxCell>
        <mxCell id="WSbjGgRug-91Eox6C42--5" value="&lt;div&gt;Mongodb Deployment&lt;/div&gt;" style="text;html=1;align=center;verticalAlign=middle;whiteSpace=wrap;rounded=0;" vertex="1" parent="1">
          <mxGeometry x="503" y="161" width="60" height="30" as="geometry" />
        </mxCell>
        <mxCell id="WSbjGgRug-91Eox6C42--17" style="edgeStyle=orthogonalEdgeStyle;rounded=0;orthogonalLoop=1;jettySize=auto;html=1;entryX=1;entryY=0.5;entryDx=0;entryDy=0;" edge="1" parent="1" source="WSbjGgRug-91Eox6C42--7" target="WSbjGgRug-91Eox6C42--14">
          <mxGeometry relative="1" as="geometry" />
        </mxCell>
        <mxCell id="WSbjGgRug-91Eox6C42--7" value="" style="rounded=0;whiteSpace=wrap;html=1;" vertex="1" parent="1">
          <mxGeometry x="500" y="280" width="120" height="60" as="geometry" />
        </mxCell>
        <mxCell id="WSbjGgRug-91Eox6C42--8" value="&lt;div&gt;webdb Deployment&lt;/div&gt;" style="text;html=1;align=center;verticalAlign=middle;whiteSpace=wrap;rounded=0;" vertex="1" parent="1">
          <mxGeometry x="503" y="282" width="60" height="30" as="geometry" />
        </mxCell>
        <mxCell id="WSbjGgRug-91Eox6C42--9" value="mongodb pod" style="ellipse;whiteSpace=wrap;html=1;" vertex="1" parent="1">
          <mxGeometry x="350" y="160" width="70" height="40" as="geometry" />
        </mxCell>
        <mxCell id="WSbjGgRug-91Eox6C42--10" value="" style="ellipse;whiteSpace=wrap;html=1;" vertex="1" parent="1">
          <mxGeometry x="355" y="246" width="70" height="40" as="geometry" />
        </mxCell>
        <mxCell id="WSbjGgRug-91Eox6C42--11" value="" style="ellipse;whiteSpace=wrap;html=1;" vertex="1" parent="1">
          <mxGeometry x="355" y="346" width="70" height="40" as="geometry" />
        </mxCell>
        <mxCell id="WSbjGgRug-91Eox6C42--12" value="" style="ellipse;whiteSpace=wrap;html=1;" vertex="1" parent="1">
          <mxGeometry x="355" y="296" width="70" height="40" as="geometry" />
        </mxCell>
        <mxCell id="WSbjGgRug-91Eox6C42--13" value="webdb pod" style="text;html=1;align=center;verticalAlign=middle;whiteSpace=wrap;rounded=0;" vertex="1" parent="1">
          <mxGeometry x="360" y="301" width="60" height="30" as="geometry" />
        </mxCell>
        <mxCell id="WSbjGgRug-91Eox6C42--14" value="webdb pod" style="text;html=1;align=center;verticalAlign=middle;whiteSpace=wrap;rounded=0;" vertex="1" parent="1">
          <mxGeometry x="360" y="220" width="60" height="100" as="geometry" />
        </mxCell>
        <mxCell id="WSbjGgRug-91Eox6C42--16" value="webdb pod" style="text;html=1;align=center;verticalAlign=middle;whiteSpace=wrap;rounded=0;" vertex="1" parent="1">
          <mxGeometry x="360" y="351" width="60" height="30" as="geometry" />
        </mxCell>
        <mxCell id="WSbjGgRug-91Eox6C42--18" style="edgeStyle=orthogonalEdgeStyle;rounded=0;orthogonalLoop=1;jettySize=auto;html=1;entryX=1;entryY=0.5;entryDx=0;entryDy=0;" edge="1" parent="1" target="WSbjGgRug-91Eox6C42--12">
          <mxGeometry relative="1" as="geometry">
            <mxPoint x="510" y="320" as="sourcePoint" />
            <mxPoint x="430" y="280" as="targetPoint" />
          </mxGeometry>
        </mxCell>
        <mxCell id="WSbjGgRug-91Eox6C42--19" style="edgeStyle=orthogonalEdgeStyle;rounded=0;orthogonalLoop=1;jettySize=auto;html=1;entryX=1;entryY=0.5;entryDx=0;entryDy=0;" edge="1" parent="1" target="WSbjGgRug-91Eox6C42--16">
          <mxGeometry relative="1" as="geometry">
            <mxPoint x="520" y="330" as="sourcePoint" />
            <mxPoint x="435" y="326" as="targetPoint" />
          </mxGeometry>
        </mxCell>
        <mxCell id="WSbjGgRug-91Eox6C42--21" value="" style="shape=flexArrow;endArrow=classic;startArrow=classic;html=1;rounded=0;exitX=0.5;exitY=1;exitDx=0;exitDy=0;entryX=0;entryY=0.42;entryDx=0;entryDy=0;entryPerimeter=0;" edge="1" parent="1" source="WSbjGgRug-91Eox6C42--9" target="WSbjGgRug-91Eox6C42--14">
          <mxGeometry width="100" height="100" relative="1" as="geometry">
            <mxPoint x="397" y="387" as="sourcePoint" />
            <mxPoint x="477" y="307" as="targetPoint" />
          </mxGeometry>
        </mxCell>
        <mxCell id="WSbjGgRug-91Eox6C42--22" value="KubeDNS" style="edgeLabel;html=1;align=center;verticalAlign=middle;resizable=0;points=[];" vertex="1" connectable="0" parent="WSbjGgRug-91Eox6C42--21">
          <mxGeometry x="0.0947" y="-2" relative="1" as="geometry">
            <mxPoint y="-1" as="offset" />
          </mxGeometry>
        </mxCell>
        <mxCell id="WSbjGgRug-91Eox6C42--23" value="Port 27017" style="text;html=1;align=center;verticalAlign=middle;whiteSpace=wrap;rounded=0;" vertex="1" parent="1">
          <mxGeometry x="560" y="191" width="60" height="30" as="geometry" />
        </mxCell>
        <mxCell id="WSbjGgRug-91Eox6C42--24" value="Port&lt;br&gt;5066" style="text;html=1;align=center;verticalAlign=middle;whiteSpace=wrap;rounded=0;" vertex="1" parent="1">
          <mxGeometry x="570" y="310" width="60" height="30" as="geometry" />
        </mxCell>
        <mxCell id="WSbjGgRug-91Eox6C42--36" style="edgeStyle=orthogonalEdgeStyle;rounded=0;orthogonalLoop=1;jettySize=auto;html=1;exitX=0.5;exitY=0;exitDx=0;exitDy=0;entryX=0;entryY=0.5;entryDx=0;entryDy=0;" edge="1" parent="1" source="WSbjGgRug-91Eox6C42--25" target="WSbjGgRug-91Eox6C42--16">
          <mxGeometry relative="1" as="geometry" />
        </mxCell>
        <mxCell id="WSbjGgRug-91Eox6C42--37" style="edgeStyle=orthogonalEdgeStyle;rounded=0;orthogonalLoop=1;jettySize=auto;html=1;exitX=0.5;exitY=0;exitDx=0;exitDy=0;entryX=0;entryY=1;entryDx=0;entryDy=0;" edge="1" parent="1" source="WSbjGgRug-91Eox6C42--25" target="WSbjGgRug-91Eox6C42--14">
          <mxGeometry relative="1" as="geometry" />
        </mxCell>
        <mxCell id="WSbjGgRug-91Eox6C42--38" style="edgeStyle=orthogonalEdgeStyle;rounded=0;orthogonalLoop=1;jettySize=auto;html=1;exitX=0.5;exitY=0;exitDx=0;exitDy=0;entryX=0;entryY=0.5;entryDx=0;entryDy=0;" edge="1" parent="1" source="WSbjGgRug-91Eox6C42--25" target="WSbjGgRug-91Eox6C42--14">
          <mxGeometry relative="1" as="geometry" />
        </mxCell>
        <mxCell id="WSbjGgRug-91Eox6C42--39" style="edgeStyle=orthogonalEdgeStyle;rounded=0;orthogonalLoop=1;jettySize=auto;html=1;exitX=0;exitY=0;exitDx=0;exitDy=0;entryX=0;entryY=0.5;entryDx=0;entryDy=0;" edge="1" parent="1" source="WSbjGgRug-91Eox6C42--25" target="WSbjGgRug-91Eox6C42--9">
          <mxGeometry relative="1" as="geometry" />
        </mxCell>
        <mxCell id="WSbjGgRug-91Eox6C42--25" value="&lt;div&gt;Ingress&lt;/div&gt;157.159.11.201" style="rounded=1;whiteSpace=wrap;html=1;" vertex="1" parent="1">
          <mxGeometry x="190" y="390" width="120" height="60" as="geometry" />
        </mxCell>
        <mxCell id="WSbjGgRug-91Eox6C42--32" value="l&#39;internet&lt;br&gt;moderne" style="ellipse;shape=cloud;whiteSpace=wrap;html=1;" vertex="1" parent="1">
          <mxGeometry x="130" y="530" width="120" height="80" as="geometry" />
        </mxCell>
        <mxCell id="WSbjGgRug-91Eox6C42--34" style="edgeStyle=orthogonalEdgeStyle;rounded=0;orthogonalLoop=1;jettySize=auto;html=1;exitX=0.5;exitY=1;exitDx=0;exitDy=0;entryX=0.625;entryY=0.2;entryDx=0;entryDy=0;entryPerimeter=0;" edge="1" parent="1" source="WSbjGgRug-91Eox6C42--25" target="WSbjGgRug-91Eox6C42--32">
          <mxGeometry relative="1" as="geometry" />
        </mxCell>
        <mxCell id="WSbjGgRug-91Eox6C42--35" value="webdb.luxbulb.org et webnodb.luxbulb.org" style="edgeLabel;html=1;align=center;verticalAlign=middle;resizable=0;points=[];" vertex="1" connectable="0" parent="WSbjGgRug-91Eox6C42--34">
          <mxGeometry x="-0.3759" y="1" relative="1" as="geometry">
            <mxPoint as="offset" />
          </mxGeometry>
        </mxCell>
      </root>
    </mxGraphModel>
  </diagram>
</mxfile>
